<?xml version="1.0" encoding="UTF-8" standalone="no"?>
<!-- Generator: Adobe Illustrator 23.0.0, SVG Export Plug-In . SVG Version: 6.00 Build 0)  -->

<svg
   xmlns:dc="http://purl.org/dc/elements/1.1/"
   xmlns:cc="http://creativecommons.org/ns#"
   xmlns:rdf="http://www.w3.org/1999/02/22-rdf-syntax-ns#"
   xmlns:svg="http://www.w3.org/2000/svg"
   xmlns="http://www.w3.org/2000/svg"
   xmlns:sodipodi="http://sodipodi.sourceforge.net/DTD/sodipodi-0.dtd"
   xmlns:inkscape="http://www.inkscape.org/namespaces/inkscape"
   version="1.1"
   x="0px"
   y="0px"
   viewBox="0 0 544.2 187.5"
   style="enable-background:new 0 0 544.2 187.5;"
   xml:space="preserve"
   id="svg51"
   sodipodi:docname="curlzwhite.svg"
   inkscape:version="0.92.2 (5c3e80d, 2017-08-06)"><metadata
     id="metadata57"><rdf:RDF><cc:Work
         rdf:about=""><dc:format>image/svg+xml</dc:format><dc:type
           rdf:resource="http://purl.org/dc/dcmitype/StillImage" /></cc:Work></rdf:RDF></metadata><defs
     id="defs55" /><sodipodi:namedview
     pagecolor="#ffffff"
     bordercolor="#666666"
     borderopacity="1"
     objecttolerance="10"
     gridtolerance="10"
     guidetolerance="10"
     inkscape:pageopacity="0"
     inkscape:pageshadow="2"
     inkscape:window-width="1366"
     inkscape:window-height="706"
     id="namedview53"
     showgrid="false"
     inkscape:zoom="0.63212053"
     inkscape:cx="272.10001"
     inkscape:cy="93.75"
     inkscape:window-x="-8"
     inkscape:window-y="-8"
     inkscape:window-maximized="1"
     inkscape:current-layer="Objects" /><style
     type="text/css"
     id="style2">
	.st0{fill:#EFECE6;}
	.st1{fill:none;stroke:#FFFFFF;stroke-width:2;stroke-miterlimit:10;}
	.st2{fill:#FFFFFF;}
</style><g
     id="Background"><path
       id="XMLID_17_"
       class="st0"
       d="M680.2,507.8" /></g><g
     id="Objects"
     style="fill:#000000"><g
       id="XMLID_75_"
       style="fill:#000000"><g
         id="XMLID_74_"
         style="fill:#000000"><g
           id="XMLID_421_"
           style="fill:#000000"><path
             id="XMLID_2_"
             d="M-209.4,215.1"
             style="fill:#000000" /></g></g></g><rect
       x="13.7"
       y="19.7"
       class="st1"
       width="122.9"
       height="122.9"
       id="rect10"
       style="fill:#000000" /><g
       id="g34"
       style="fill:#000000"><g
         id="g14"
         style="fill:#000000"><path
           class="st2"
           d="M101,33.3C80.8,46.8,68.6,83.5,68.6,83.5c2.9,2.9,1,11.8-14.2,27.1l2.1,2.1C68.2,101,73.8,91.3,72.9,85.1     L101,33.3z"
           id="path12"
           style="fill:#000000" /></g><g
         id="g24"
         style="fill:#000000"><g
           id="g18"
           style="fill:#000000"><path
             class="st2"
             d="M77.1,80.2l-2.8,5.2c0.1,0.6,0.1,1.2,0,1.8c7-2.5,36.8-14.1,48.7-31.9L77.1,80.2z"
             id="path16"
             style="fill:#000000" /></g><g
           id="g22"
           style="fill:#000000"><path
             class="st2"
             d="M67.6,84.5L67,83.8l0.1-0.2c-6,1.3-14,6.8-23.3,16.1l2.1,2.1c10.4-10.4,17.9-14.6,22.5-15.2      C68.3,85.7,68.1,85,67.6,84.5z"
             id="path20"
             style="fill:#000000" /></g></g><g
         id="g28"
         style="fill:#000000"><path
           class="st2"
           d="M70.4,108.7c-2.1-2-5-2.8-8-2.4c-2.8,0.4-5.6,1.8-8,4.2c-4.9,4.9-5.7,12.1-1.8,16c3.9,3.9,11.1,3.1,16-1.8     C73.5,119.8,74.3,112.6,70.4,108.7z M66.3,122.4c-3.6,3.6-8.8,4.5-11.4,1.8c-2.6-2.6-1.8-7.8,1.8-11.4c3.7-3.6,8.8-4.5,11.4-1.8     C70.8,113.6,69.9,118.8,66.3,122.4z"
           id="path26"
           style="fill:#000000" /></g><g
         id="g32"
         style="fill:#000000"><path
           class="st2"
           d="M47.6,85.9c-3.9-3.9-11.1-3.1-16,1.8c-4.9,4.9-5.7,12.1-1.8,16c3.9,3.9,11.1,3.1,16-1.8     c2.3-2.3,3.8-5.2,4.2-8C50.4,90.9,49.7,87.9,47.6,85.9z M32.1,101.4c-2.6-2.6-1.8-7.8,1.8-11.4c3.7-3.7,8.8-4.5,11.4-1.8     c2.6,2.6,1.8,7.8-1.8,11.4C39.8,103.3,34.7,104.1,32.1,101.4z"
           id="path30"
           style="fill:#000000" /></g></g><g
       id="g48"
       style="fill:#000000"><text
         xml:space="preserve"
         style="font-style:normal;font-variant:normal;font-weight:normal;font-stretch:normal;font-size:40px;line-height:1.25;font-family:'Giddyup Std';-inkscape-font-specification:'Giddyup Std, Normal';font-variant-ligatures:normal;font-variant-caps:normal;font-variant-numeric:normal;font-feature-settings:normal;text-align:start;letter-spacing:0px;word-spacing:0px;writing-mode:lr-tb;text-anchor:start;fill:#ffcc00;fill-opacity:1;stroke:none;"
         x="147.12383"
         y="121.05697"
         id="text866"><tspan
           sodipodi:role="line"
           id="tspan864"
           x="147.12383"
           y="121.05697"
           style="font-style:normal;font-variant:normal;font-weight:bold;font-stretch:normal;font-size:160px;font-family:'Angsana New';-inkscape-font-specification:'Angsana New, Bold';font-variant-ligatures:normal;font-variant-caps:normal;font-variant-numeric:normal;font-feature-settings:normal;text-align:start;writing-mode:lr;text-anchor:start;fill:#ffcc00;stroke:#2b0000;">CURLZ</tspan></text>
</g></g></svg>